<svg width="39" height="39" viewBox="0 0 39 39" fill="none" xmlns="http://www.w3.org/2000/svg">
<path d="M9.18733 22.6235C8.71179 22.6783 8.23625 22.7369 7.7607 22.7991M9.18733 22.6235C16.1347 21.8189 23.1639 21.8189 30.1113 22.6235M9.18733 22.6235L8.43439 30.2523M30.1113 22.6235C30.5868 22.6783 31.0623 22.7369 31.5379 22.7991M30.1113 22.6235L30.8642 30.2523L31.318 34.8669C31.346 35.1516 31.3095 35.4386 31.2108 35.7095C31.112 35.9805 30.9532 36.2295 30.7444 36.4407C30.5356 36.6518 30.2814 36.8205 29.9981 36.9359C29.7147 37.0513 29.4085 37.111 29.0987 37.1111H10.1998C8.88814 37.1111 7.86176 36.0722 7.98064 34.8669L8.43439 30.2523M8.43439 30.2523H6.27463C5.09224 30.2523 3.95827 29.8187 3.12219 29.047C2.28611 28.2752 1.81641 27.2284 1.81641 26.137V14.6252C1.81641 12.648 3.33815 10.9397 5.4563 10.6471C6.71639 10.4731 7.98014 10.3225 9.24678 10.1953M30.8602 30.2523H33.022C33.6076 30.2525 34.1876 30.1463 34.7287 29.9396C35.2698 29.7329 35.7615 29.4298 36.1757 29.0476C36.5899 28.6654 36.9185 28.2117 37.1426 27.7123C37.3668 27.2129 37.4822 26.6776 37.4822 26.137V14.6252C37.4822 12.648 35.9605 10.9397 33.8423 10.6471C32.5822 10.4731 31.3185 10.3225 30.0518 10.1953M30.0518 10.1953C23.1372 9.50084 16.1614 9.50084 9.24678 10.1953M30.0518 10.1953V3.50295C30.0518 2.36714 29.0532 1.44531 27.8227 1.44531H11.4759C10.2454 1.44531 9.24678 2.36714 9.24678 3.50295V10.1953M31.5379 16.5347H31.5537V16.5493H31.5379V16.5347ZM25.5936 16.5347H25.6094V16.5493H25.5936V16.5347Z" stroke="#4C4D4F" stroke-width="1.98143" stroke-linecap="round" stroke-linejoin="round"/>
</svg>
